<svg xmlns="http://www.w3.org/2000/svg" width="16" height="16" fill="none"><path fill="#fff" fill-rule="evenodd" d="m7.987 2.182-.01 1.065c.46.048.873.156 1.242.326.518.236.92.565 1.209.986.287.421.436.909.445 1.464H8.987c-.037-.367-.193-.652-.468-.855a1.493 1.493 0 0 0-.556-.246l-.024 2.272.27.065c.407.09.78.212 1.119.364.339.151.633.337.881.559.249.22.441.481.578.781.14.3.21.644.213 1.032-.003.57-.148 1.064-.436 1.482-.285.415-.697.738-1.236.968a4.527 4.527 0 0 1-1.44.323l-.01 1.05H6.805l.01-1.056a4.684 4.684 0 0 1-1.392-.321c-.554-.23-.988-.572-1.3-1.023-.309-.455-.471-1.017-.486-1.686H5.54c.021.312.11.572.268.781.161.207.375.363.641.469.12.045.247.08.38.106l.023-2.407-.434-.108c-.785-.191-1.405-.49-1.86-.896-.454-.406-.68-.953-.677-1.64-.003-.564.147-1.057.45-1.478.306-.421.726-.75 1.26-.986a4.185 4.185 0 0 1 1.312-.332l.01-1.06h1.073Zm-.062 6.782-.021 2.122c.117-.023.226-.055.328-.095.249-.097.441-.232.577-.405a.935.935 0 0 0 .205-.595.774.774 0 0 0-.186-.528A1.413 1.413 0 0 0 8.29 9.1a4.224 4.224 0 0 0-.366-.136ZM6.582 5c-.221.088-.39.21-.509.368a.886.886 0 0 0-.173.536.766.766 0 0 0 .105.437c.079.124.186.232.323.322.136.088.294.166.472.232l.07.023.018-2.009c-.111.022-.213.053-.306.09Z" clip-rule="evenodd"/></svg>