<svg xmlns="http://www.w3.org/2000/svg" width="16" height="16" fill="none"><path fill="#fff" d="M12.445 11.111v1.334h-8.89V11.11h8.89Zm0-6.666c-.667 0-1.183.748-.71 1.42.237.336.18.54.02.776-.34.501-.833.915-1.533.915-1.12 0-1.712-.926-1.835-1.71-.043-.273-.067-.478.193-.731.179-.174.31-.402.31-.67a.89.89 0 0 0-1.779 0c0 .268.13.496.31.67.26.253.235.458.193.73-.123.785-.715 1.71-1.836 1.71-.7 0-1.192-.413-1.532-.914-.16-.236-.218-.44.02-.777.473-.67-.043-1.42-.71-1.42a.89.89 0 0 0-.38 1.693c.366.169.38.585.38.965v3.12h8.889v-3.12c0-.38.014-.797.38-.965a.89.89 0 0 0-.38-1.692Z"/></svg>