<svg xmlns="http://www.w3.org/2000/svg" width="16" height="16" fill="none"><path fill="#18A661" fill-rule="evenodd" d="m3.123 7.656 4.781 4.52v2.49L1.86 8.95a4.072 4.072 0 0 1 5.758-5.758c.077.078.142.163.206.247l.081.105c.028-.034.055-.07.082-.105.064-.084.129-.17.206-.247A4.057 4.057 0 0 1 11.072 2a4.058 4.058 0 0 1 3.824 5.429h-2.028a2.259 2.259 0 0 0-.197-2.957 2.247 2.247 0 0 0-1.6-.662c-.706 0-1.355.344-1.645.725-.085.11-.426.47-.766.83-.332.35-.663.699-.756.815-.092-.116-.423-.466-.755-.816-.34-.359-.681-.719-.766-.829-.292-.383-.935-.725-1.645-.725-.605 0-1.173.235-1.6.662a2.266 2.266 0 0 0-.015 3.184Zm10.21 3.391h1.81v1.81h-1.81v1.81h-1.81v-1.81h-1.81v-1.81h1.81V9.239h1.81v1.81Z" clip-rule="evenodd"/></svg>