<svg xmlns="http://www.w3.org/2000/svg" width="18" height="18" fill="none"><mask id="a" width="18" height="18" x="0" y="0" maskUnits="userSpaceOnUse" style="mask-type:alpha"><path fill="#D9D9D9" d="M0 0h18v18H0z"/></mask><g mask="url(#a)"><path fill="#9C9C9C" d="M4.91 14.25a2.012 2.012 0 0 1-1.45-.574 1.863 1.863 0 0 1-.596-1.395H1.5V5.062c0-.36.134-.67.4-.926.268-.257.589-.386.964-.386h9.545v2.625h2.045L16.5 9v3.281h-1.364c0 .547-.198 1.012-.596 1.395-.398.383-.88.574-1.45.574a2.012 2.012 0 0 1-1.448-.574 1.863 1.863 0 0 1-.596-1.395H6.955c0 .547-.2 1.012-.597 1.395-.398.383-.88.574-1.449.574Zm0-1.313a.674.674 0 0 0 .485-.188.622.622 0 0 0 .196-.468.622.622 0 0 0-.196-.467.674.674 0 0 0-.486-.189.674.674 0 0 0-.486.189.622.622 0 0 0-.196.467c0 .186.066.342.196.467.13.127.293.19.486.19Zm8.18 0a.672.672 0 0 0 .486-.188.621.621 0 0 0 .197-.468.621.621 0 0 0-.197-.467.672.672 0 0 0-.485-.189.671.671 0 0 0-.486.189.621.621 0 0 0-.196.467c0 .186.066.342.196.467.13.127.293.19.486.19Zm-.68-3.28h2.897l-1.534-1.97h-1.364v1.97Z"/></g></svg>